Coordinates
version=1
nRows=16
nColumns=40
inDegrees=yes

Units are S.I. units (second, meters, Newtons, ...)
If the header above contains a line with 'inDegrees', this indicates whether rotational values are in degrees (yes) or radians (no).

endheader
time	pelvis_tilt	pelvis_list	pelvis_rotation	pelvis_tx	pelvis_ty	pelvis_tz	hip_flexion_r	hip_adduction_r	hip_rotation_r	knee_angle_r	knee_angle_r_beta	ankle_angle_r	subtalar_angle_r	mtp_angle_r	hip_flexion_l	hip_adduction_l	hip_rotation_l	knee_angle_l	knee_angle_l_beta	ankle_angle_l	subtalar_angle_l	mtp_angle_l	lumbar_extension	lumbar_bending	lumbar_rotation	arm_flex_r	arm_add_r	arm_rot_r	elbow_flex_r	pro_sup_r	wrist_flex_r	wrist_dev_r	arm_flex_l	arm_add_l	arm_rot_l	elbow_flex_l	pro_sup_l	wrist_flex_l	wrist_dev_l
      0.41000000	     10.15696023	     -2.14072861	     -3.36314535	      0.24774398	      1.06740770	     -0.25912714	     11.57962889	     -0.56612012	      0.69500050	     54.80045085	      0.95644830	      1.95286738	      0.00000000	      0.00000000	    -11.98120474	     -0.72991720	     -4.06979824	      3.89773926	      0.06802838	      2.76114976	      0.00000000	      0.00000000	    -28.02022275	     -1.95268451	      4.17407951	     -6.17983101	      1.91129358	    -17.90716344	     46.20423347	     89.40388882	      0.52953116	     13.93700018	      9.78919426	     -5.06863393	     -6.68252818	     41.90325730	     89.47080794	    -12.41156611	      1.00279220
      0.42000000	     10.17790292	     -2.25633109	     -3.07454674	      0.25739142	      1.06692415	     -0.26037798	     12.09089782	     -0.55509951	      0.04768259	     52.54935097	      0.91715919	      2.44946384	      0.00000000	      0.00000000	    -12.56781029	     -0.80081537	     -3.88231189	      3.89321196	      0.06794937	      3.29999529	      0.00000000	      0.00000000	    -28.07594476	     -1.54297351	      4.05650185	     -6.44375618	      2.04532104	    -18.65255292	     46.47201943	     89.38265924	      0.36933285	     13.50618920	     10.61116664	     -5.12993817	     -6.14707684	     42.52067128	     89.46463739	    -12.45261657	      0.79156554
      0.43000000	      9.93700806	     -2.04503451	     -3.19482754	      0.26698435	      1.06585003	     -0.26106257	     12.95713006	     -0.81595261	     -0.18740639	     50.28153635	      0.87757836	      2.72957321	      0.00000000	      0.00000000	    -12.88090924	     -0.45658581	     -4.05416386	      3.86977880	      0.06754038	      3.64230435	      0.00000000	      0.00000000	    -27.79703519	     -1.61812104	      3.96856511	     -6.58381889	      2.09989045	    -18.97292320	     46.55149267	     89.35802386	      0.29009652	     13.42204516	     11.23902228	     -5.20950177	     -5.91850523	     43.26457228	     89.47136857	    -12.40621710	      0.68640750
      0.44000000	     10.31871990	     -2.33907675	     -2.66714917	      0.27667035	      1.06564594	     -0.26236869	     12.74311813	     -0.71796846	     -1.31158013	     47.40052266	      0.82729519	      3.28409552	      0.00000000	      0.00000000	    -13.85019774	     -0.77250615	     -3.70194450	      3.89641738	      0.06800531	      4.32304722	      0.00000000	      0.00000000	    -28.28028825	     -1.00259509	      4.56924237	     -7.34938131	      2.41169571	    -20.55867572	     47.33383056	     89.34073884	     -0.17561771	     12.30164061	     12.79872727	     -5.12737031	     -4.26334134	     43.15130176	     89.45114642	    -12.11025210	      0.64117971
      0.45000000	     10.34934185	     -2.42624535	     -2.46298440	      0.28648275	      1.06482972	     -0.26326199	     12.92978316	     -0.76703807	     -2.17717836	     44.45856008	      0.77594825	      3.53497633	      0.00000000	      0.00000000	    -14.45601584	     -0.82100262	     -3.64081228	      3.91740501	      0.06837162	      4.90476955	      0.00000000	      0.00000000	    -28.31987128	     -0.67350359	      4.49943137	     -7.57122761	      2.51834032	    -21.10960061	     47.54790800	     89.32389119	     -0.23490409	     11.98625358	     13.52709545	     -5.16281523	     -3.79869952	     43.76887342	     89.44835790	    -12.00751724	      0.55290588
      0.46000000	     10.48638953	     -2.47932072	     -2.20975871	      0.29630073	      1.06409445	     -0.26408225	     12.88826218	     -0.86089990	     -3.20280204	     41.29755568	      0.72077832	      3.54416819	      0.00000000	      0.00000000	    -15.18698419	     -0.84929639	     -3.48237150	      3.90117228	      0.06808830	      5.36150494	      0.00000000	      0.00000000	    -28.48026061	     -0.38916275	      4.58753574	     -7.88666540	      2.67438316	    -21.82206123	     47.83171342	     89.30188152	     -0.31068330	     11.59661170	     14.43231053	     -5.17704680	     -3.03453359	     44.21445415	     89.44064767	    -11.78588915	      0.54900888
      0.47000000	     10.34655017	     -2.35173734	     -2.24978234	      0.30607846	      1.06279824	     -0.26438013	     13.16482883	     -1.01487258	     -3.85390501	     38.11780314	      0.66528117	      3.53385999	      0.00000000	      0.00000000	    -15.60258886	     -0.63893181	     -3.69611537	      3.94642567	      0.06887812	      5.82738121	      0.00000000	      0.00000000	    -28.30639560	     -0.38597926	      4.57210515	     -8.00955060	      2.80260032	    -22.28761635	     47.88830162	     89.28889565	     -0.37217095	     11.46528350	     15.07182530	     -5.28613679	     -2.51079739	     44.81537185	     89.43316203	    -11.64604836	      0.50565071
      0.48000000	     10.73627341	     -2.62036294	     -1.77667178	      0.31615185	      1.06226755	     -0.26533999	     12.54519383	     -0.88716684	     -5.38167311	     34.49878016	      0.60211730	      3.02835551	      0.00000000	      0.00000000	    -16.66726494	     -0.95215769	     -3.39383639	      3.82727945	      0.06679863	      6.38293706	      0.00000000	      0.00000000	    -28.75470398	      0.19868799	      4.76577872	     -8.48527538	      2.92243557	    -22.97111642	     48.39963055	     89.27466428	     -0.36681029	     11.01244288	     16.09893228	     -5.17818728	     -1.63875973	     45.05669843	     89.43016270	    -11.34166341	      0.61961164
      0.49000000	     10.87575763	     -2.67319633	     -1.67440921	      0.32613257	      1.06118207	     -0.26538802	     12.26371961	     -0.80223978	     -6.43830571	     30.97543672	      0.54062336	      2.44485998	      0.00000000	      0.00000000	    -17.42134870	     -0.98427553	     -3.40757491	      3.84202218	      0.06705594	      6.84573362	      0.00000000	      0.00000000	    -28.87695790	      0.36065153	      5.07657934	     -8.80137114	      3.11379829	    -23.63133025	     48.61007854	     89.26575928	     -0.35500053	     10.83477290	     16.99169808	     -5.19336960	     -0.73110818	     45.37782001	     89.42560054	    -11.05921240	      0.69508032
      0.50000000	     10.97231411	     -2.72162036	     -1.58241693	      0.33614797	      1.05995426	     -0.26535896	     11.98146017	     -0.64069059	     -7.35250103	     27.43647084	      0.47885675	      1.57940572	      0.00000000	      0.00000000	    -18.14019638	     -1.01527588	     -3.51738055	      3.82947554	      0.06683696	      7.33878901	      0.00000000	      0.00000000	    -28.95839651	      0.53920013	      5.29802900	     -9.07981832	      3.24792711	    -24.11382597	     48.80172249	     89.26213840	     -0.30678154	     10.71435556	     17.78946928	     -5.20686236	      0.04730906	     45.70608385	     89.42096569	    -10.84755912	      0.75257006
      0.51000000	     11.08256986	     -2.74446473	     -1.50938734	      0.34618588	      1.05863448	     -0.26514380	     11.64426030	     -0.43072121	     -8.07284920	     23.93138603	      0.41768148	      0.57852892	      0.00000000	      0.00000000	    -18.86406552	     -1.02440051	     -3.60248954	      3.85054529	      0.06720469	      7.79543444	      0.00000000	      0.00000000	    -29.06065690	      0.66527501	      5.56475960	     -9.34961188	      3.40701508	    -24.62182576	     48.96889083	     89.25987558	     -0.25136902	     10.63764161	     18.58480174	     -5.22419988	      0.87238689	     46.02715430	     89.41855634	    -10.65298784	      0.81097016
      0.52000000	     11.22539410	     -2.70839944	     -1.47238418	      0.35606384	      1.05723132	     -0.26470351	     11.27918130	     -0.21379899	     -8.52484031	     20.57134216	      0.35903765	     -0.55225553	      0.00000000	      0.00000000	    -19.60311411	     -0.97382590	     -3.70811913	      3.89335304	      0.06795183	      8.23698532	      0.00000000	      0.00000000	    -29.20503238	      0.69121966	      5.99930058	     -9.68998718	      3.61387348	    -25.24956195	     49.22516899	     89.26393548	     -0.08610149	     10.64376458	     19.54508554	     -5.19150504	      1.94522330	     46.12572287	     89.41423469	    -10.45305449	      0.88034314
      0.53000000	     11.20054566	     -2.68898120	     -1.56291489	      0.36608002	      1.05555831	     -0.26403472	     11.09145047	      0.09300063	     -8.54057092	     17.37765030	      0.30329721	     -1.82115712	      0.00000000	      0.00000000	    -20.15687942	     -0.90969401	     -3.98371395	      3.99162104	      0.06966693	      8.72377061	      0.00000000	      0.00000000	    -29.15236865	      0.70411322	      6.20094322	     -9.82038245	      3.71696960	    -25.47339516	     49.21117613	     89.26792498	     -0.03341442	     10.63831130	     20.12399000	     -5.24151426	      2.53603925	     46.52462773	     89.41410675	    -10.37758963	      0.85999714
      0.54000000	     11.27490144	     -2.64905503	     -1.59418295	      0.37609803	      1.05395880	     -0.26342295	     10.77169379	      0.37893848	     -8.33197136	     14.38827832	      0.25112283	     -3.01208904	      0.00000000	      0.00000000	    -20.79700410	     -0.84392179	     -4.20575321	      4.11854093	      0.07188210	      9.15471345	      0.00000000	      0.00000000	    -29.22432250	      0.70730473	      6.49406859	    -10.01744109	      3.84494794	    -25.81526096	     49.27193440	     89.27463835	      0.02454986	     10.63761089	     20.80802522	     -5.23578675	      3.29172886	     46.81005355	     89.41451064	    -10.31007359	      0.86528111
      0.55000000	     11.24367286	     -2.52213936	     -1.70533848	      0.38608630	      1.05219927	     -0.26267175	     10.59263965	      0.57576209	     -7.78875260	     11.70407676	      0.20427468	     -4.19451615	      0.00000000	      0.00000000	    -21.28890634	     -0.67016269	     -4.45490561	      4.31777997	      0.07535948	      9.60251512	      0.00000000	      0.00000000	    -29.17273650	      0.61846526	      6.66876283	    -10.11804522	      3.94655148	    -25.99455841	     49.22977778	     89.27913226	      0.07364689	     10.66079073	     21.36364231	     -5.28209619	      3.91750884	     47.08198555	     89.41377960	    -10.26203818	      0.84130824
      0.56000000	     11.12545362	     -2.30558770	     -1.72222463	      0.39616670	      1.05028771	     -0.26201213	     10.51761663	      0.63841935	     -7.06521951	      9.39255207	      0.16393096	     -4.94988313	      0.00000000	      0.00000000	    -21.62938131	     -0.45409958	     -4.57648622	      4.61329504	      0.08051719	     10.03058376	      0.00000000	      0.00000000	    -29.01494995	      0.49373326	      6.60730388	    -10.14344766	      4.05856283	    -26.13053951	     49.10210199	     89.28620251	      0.07710529	     10.69431157	     21.77431274	     -5.40116314	      4.44208595	     47.42950475	     89.41197157	    -10.19932397	      0.79889348
